<svg xmlns="http://www.w3.org/2000/svg" version="1.1" viewBox="-5.0 -10.0 110.0 135.0">
 <path d="m44.285 44.906c0.28906-0.66406 0.074219-1.4375-0.51172-1.8594-0.58984-0.42188-1.3906-0.375-1.9258 0.11328-10.277 9.8047-20.648 0.39453-21.082-0.011718v0.003906c-0.53516-0.5-1.3477-0.55469-1.9414-0.125-0.58984 0.42969-0.79688 1.2148-0.48828 1.8789l-3.5234 3.9492c-0.54297 0.63281-0.48047 1.582 0.14062 2.1367 0.62109 0.55469 1.5703 0.50781 2.1367-0.10156l3.5625-3.9883c0.34375 0.23438 0.71875 0.47656 1.1406 0.73047l-2.4961 4.793v-0.003906c-0.1875 0.35938-0.22266 0.77734-0.10156 1.1641 0.12109 0.38672 0.39063 0.71094 0.75 0.89844 0.35938 0.1875 0.78125 0.22266 1.1641 0.10156 0.38672-0.12109 0.71094-0.39063 0.89844-0.75391l2.5039-4.8008c0.36328 0.16016 0.74609 0.30859 1.1367 0.45312l-1.2734 5.2344h-0.003906c-0.097656 0.39453-0.03125 0.8125 0.17969 1.1562 0.21094 0.34766 0.55078 0.59375 0.94531 0.69141 0.82031 0.19922 1.6445-0.30469 1.8438-1.125l1.25-5.1289c0.39062 0.078125 0.78906 0.14062 1.1914 0.19141v5.2305c0 0.84375 0.68359 1.5273 1.5273 1.5273s1.5312-0.68359 1.5312-1.5273v-5.125c0.40625-0.023437 0.82031-0.070313 1.2344-0.12891l1.207 4.9648v-0.003906c0.19922 0.82031 1.0273 1.3242 1.8477 1.125 0.82031-0.19922 1.3203-1.0273 1.1211-1.8477l-1.2109-4.9727c0.39844-0.14062 0.79688-0.29688 1.1992-0.47266l2.3789 4.5586-0.003907 0.003907c0.40234 0.73047 1.3125 1.0039 2.0508 0.62109 0.73828-0.38672 1.0312-1.2891 0.66016-2.0352l-2.4023-4.6094c0.375-0.25 0.75-0.53125 1.125-0.82031l3.4805 3.8984h0.003906c0.26953 0.30469 0.64844 0.48828 1.0547 0.51172 0.40234 0.023437 0.80078-0.11719 1.1055-0.38672 0.30469-0.26953 0.48438-0.64844 0.50781-1.0547 0.023437-0.40625-0.11719-0.80469-0.38672-1.1055z"/>
 <path d="m81.664 44.906c0.28906-0.66406 0.074219-1.4375-0.51562-1.8594-0.58594-0.42188-1.3906-0.375-1.9219 0.11328-10.277 9.8047-20.648 0.39453-21.082-0.011718l-0.003906 0.003906c-0.53125-0.5-1.3438-0.55469-1.9375-0.125-0.58984 0.42969-0.79688 1.2188-0.48828 1.8789l-3.5234 3.9492h-0.003906c-0.53906 0.63281-0.47656 1.582 0.14453 2.1367 0.62109 0.55469 1.5703 0.50781 2.1367-0.10156l3.5625-3.9883c0.34375 0.23438 0.71875 0.47656 1.1406 0.73047l-2.4961 4.793v-0.003906c-0.39062 0.74609-0.10156 1.6719 0.64844 2.0625 0.74609 0.39062 1.6719 0.097656 2.0625-0.64844l2.5039-4.8008c0.36328 0.16016 0.74609 0.30859 1.1367 0.45312l-1.2734 5.2344-0.003906-0.003906c-0.097656 0.39453-0.03125 0.8125 0.17969 1.1562 0.21094 0.34766 0.55078 0.59375 0.94141 0.69141 0.82031 0.19922 1.6484-0.30469 1.8477-1.125l1.25-5.1289c0.39062 0.078125 0.78906 0.14062 1.1953 0.19141v5.2266l-0.003906 0.003906c0 0.84375 0.6875 1.5273 1.5312 1.5273s1.5273-0.68359 1.5273-1.5273v-5.125c0.40625-0.023437 0.81641-0.070313 1.2344-0.12891l1.207 4.9648v-0.003906c0.19922 0.82031 1.0234 1.3242 1.8438 1.125 0.82031-0.19922 1.3242-1.0273 1.125-1.8477l-1.2109-4.9727c0.39844-0.14062 0.79688-0.29688 1.1992-0.47266l2.3789 4.5586h-0.003906c0.39844 0.73438 1.3086 1.0117 2.0469 0.625 0.73828-0.38281 1.0352-1.2891 0.66406-2.0352l-2.4023-4.6094c0.375-0.25 0.75-0.53125 1.1289-0.82031l3.4805 3.8984c0.26562 0.30469 0.64844 0.49219 1.0547 0.51562 0.40625 0.027344 0.80469-0.11328 1.1094-0.38281 0.30469-0.27344 0.48828-0.65625 0.50781-1.0625 0.023438-0.40625-0.12109-0.80469-0.39453-1.1055z"/>
 <path d="m84.582 26.973h-52.684l1.0703-0.88672h0.003906c0.34766-0.29297 0.54688-0.72266 0.54688-1.1797 0-0.45312-0.19922-0.88672-0.54688-1.1758l-4.2344-3.5-2.3477-6.4922c-0.23047-0.59375-0.80078-0.98828-1.4375-0.98828-0.64062 0-1.2109 0.39453-1.4375 0.98828l-2.3516 6.4922-4.2305 3.5c-0.34766 0.28906-0.55078 0.72266-0.55078 1.1758 0 0.45703 0.20313 0.88672 0.55078 1.1797l1.0742 0.88672h-2.5898c-5.0625 0.003906-9.1641 4.1055-9.168 9.168v27.719c0.003906 5.0625 4.1055 9.1641 9.168 9.168h51.145l-1.0742 0.88672h0.003907c-0.34766 0.29297-0.55078 0.72266-0.55078 1.1797 0 0.45312 0.20312 0.88672 0.55078 1.1758l4.2305 3.5 2.3477 6.4883 0.003907 0.003907c0.22656 0.59375 0.79688 0.98828 1.4375 0.98828 0.63672 0 1.207-0.39453 1.4336-0.98828l2.3477-6.4883 4.2344-3.5 0.003906-0.003907c0.34766-0.28906 0.54688-0.72266 0.54688-1.1758 0-0.45703-0.19922-0.88672-0.54688-1.1797l-1.0742-0.88672h4.125c5.0625-0.003906 9.1641-4.1055 9.168-9.168v-27.719c-0.003906-5.0625-4.1055-9.1641-9.168-9.168zm-61.148-4.6523c0.54297-0.32812 1.25-3.0273 1.5195-3.5703 0.27734 0.5625 0.97266 3.2383 1.5195 3.5703l3.1289 2.5859c-0.41797 0.44141-3.5078 2.6367-3.5938 3.2461l-1.0547 2.9141c-0.3125-0.64062-0.96094-3.3086-1.6055-3.6445l-3.0391-2.5117zm51.594 55.359c-0.53906 0.32422-1.25 3.0273-1.5195 3.5703-0.27344-0.5625-0.97266-3.2344-1.5156-3.5703l-3.1289-2.5859c0.41406-0.44141 3.5078-2.6367 3.5938-3.2461l1.0547-2.9141c0.27344 0.5625 0.97266 3.2383 1.5195 3.5703l3.1289 2.5859zm15.668-13.82c-0.003906 3.375-2.7383 6.1094-6.1133 6.1133h-7.4453l-2.1875-6.0469h-0.003907c-0.21875-0.60547-0.79297-1.0078-1.4336-1.0078-0.64453 0-1.2188 0.40234-1.4375 1.0078l-2.1875 6.0469h-54.469c-3.375-0.003906-6.1094-2.7383-6.1133-6.1133v-27.719c0.003906-3.375 2.7383-6.1094 6.1133-6.1133h5.9062l2.1875 6.0469h0.003906c0.21875 0.60547 0.79297 1.0078 1.4375 1.0078 0.64062 0 1.2148-0.40234 1.4375-1.0078l2.1914-6.0469h56c3.375 0.003906 6.1094 2.7383 6.1133 6.1133z"/>
<text x="0.0" y="117.5" font-size="5.0" font-weight="bold" font-family="Arbeit Regular, Helvetica, Arial-Unicode, Arial, Sans-serif" fill="#000000">Created by metami septiana</text><text x="0.0" y="122.5" font-size="5.0" font-weight="bold" font-family="Arbeit Regular, Helvetica, Arial-Unicode, Arial, Sans-serif" fill="#000000">from Noun Project</text></svg>