<?xml version="1.0" encoding="iso-8859-1"?>
<!-- Uploaded to: SVG Repo, www.svgrepo.com, Generator: SVG Repo Mixer Tools -->
<svg fill="#000000" height="800px" width="800px" version="1.1" id="Layer_1" xmlns="http://www.w3.org/2000/svg" xmlns:xlink="http://www.w3.org/1999/xlink" 
	 viewBox="0 0 512 512" xml:space="preserve">
<g>
	<g>
		<path d="M425.63,408.99c-2.787-25.126-12.901-48.536-28.476-65.92c-16.509-18.426-37.684-28.573-59.622-28.573
			c-5.57,0-11.096,0.696-16.493,2.047l-6.332-89.714c-0.726-10.278-4.113-19.803-9.439-27.934
			c57.621-14.412,90.962-49.767,92.693-51.64l4.439-4.799V0h-33.39v17.648c-75.085-12.012-150.932-12.012-226.017,0V0h-33.39
			v142.454l4.439,4.799c1.732,1.873,35.072,37.227,92.693,51.64c-5.327,8.132-8.714,17.657-9.439,27.934l-6.332,89.714
			c-5.397-1.351-10.923-2.047-16.493-2.047c-21.937,0-43.111,10.147-59.622,28.573c-15.577,17.383-25.689,40.793-28.476,65.92
			c-3.561,32.097,6.737,62.975,27.547,82.601C128.105,504.97,145.645,512,164.311,512c4.271,0,8.605-0.368,12.967-1.113
			c9.001-1.537,17.71-4.411,25.886-8.542l8.458-4.273l11.615-164.567l7.363-104.326c0.936-13.273,12.093-23.669,25.399-23.669
			c13.306,0,24.463,10.397,25.399,23.669l7.363,104.326l11.615,164.567l8.458,4.273c8.176,4.131,16.885,7.005,25.886,8.542
			c4.363,0.745,8.694,1.113,12.967,1.113c18.664,0,36.207-7.03,50.394-20.409C418.892,471.965,429.19,441.087,425.63,408.99z
			 M179.707,475.997c-2.63,0.849-5.318,1.508-8.047,1.974c-16.458,2.807-28.026-4.254-34.833-10.674
			c-13.225-12.471-19.681-32.894-17.269-54.627c4.03-36.329,28.15-64.785,54.912-64.785c4.833,0,9.541,0.992,14.072,2.956
			L179.707,475.997z M142.993,51.481c75.059-12.602,150.958-12.602,226.017,0v22.245c-75.085-12.01-150.932-12.01-226.017,0V51.481z
			 M256,171.544c-59.445,0-100.058-31.243-113.009-42.764v-21.221h0c75.06-12.602,150.959-12.602,226.017,0v21.27
			C356.14,140.39,315.894,171.544,256,171.544z M375.172,467.299c-6.807,6.421-18.374,13.485-34.832,10.674
			c-2.729-0.466-5.417-1.126-8.047-1.974l-8.834-125.154c4.531-1.966,9.239-2.956,14.072-2.956
			c26.761,0,50.881,28.456,54.912,64.785C394.854,434.405,388.397,454.828,375.172,467.299z"/>
	</g>
</g>
</svg>